<svg version="1.2" xmlns="http://www.w3.org/2000/svg" viewBox="0 0 1440 1440" width="1440" height="1440">
	<title>R&amp;F_SVG_editing</title>
	<path id="&amp; Shape" fill-rule="evenodd" class="s0" d="m608.2 536.6c52.4 54.3 511 532.1 529.5 550.6 24 20.4 42.4 49.5 118.8 52.5 0 7.9 0 15.7 0 15.7h-166c0 0-486.3-504.6-538.3-559.4-52.9-56.6-96.1-120.9-76.9-208 21.6 0 76.9 0 76.9 0 0 0-17.8 83.8 56 148.6zm111.8-326.9c139.5 0 247.8 82.7 247.8 213.3 0 125.9-124.8 209.7-193.6 222 117.5-103.6 113.6-204.2 113.6-222 0-127.7-86.7-192.3-167.8-192.3-97.9 0-152 94.4-152 94.4 0 0-92.3 0-76.9 0 56.1-95.2 160.1-115.4 228.9-115.4zm-129.3 466.7c-124.1 109.7-139.8 250.9-139.8 305.9-9.8 170.4 111.8 286.5 269.1 285 76.7-1.5 208-36.6 274.4-180.1-40.2 158.3-193.1 207.6-274.4 211.5-207.9 17.3-366.2-122.9-358.3-314.6 4.2-100.6 67.1-247.6 229-307.7zm304.1-36.7h248.1c0 0 0 5.1 0 10.5-79.6 0-113.3 44.9-127.6 89.2-15.2-44.8-45.9-89.2-120.5-89.2 0-5.4 0-10.5 0-10.5z"/>
	<path id="R Shape" fill-rule="evenodd" class="s0" d="m573.2 1104.7h286.6c0 0 0-6.7 0-15.7-53.8 0-101.4-27.4-101.4-120.7 0-44.8 0-127.6 0-127.6l-82.1-83.9c0 0-0.1 2.3 0 5.3-26-0.3-125.9-0.2-134.6-0.2-5.1 4.7-13.9 22.8-13.9 22.8l148.5 0.1c0 0 0 161.4 0 183.5 0 91.5-45.2 120.7-103.1 120.7 0 8.6 0 15.7 0 15.7zm185.1-445.8c0 0 0-148.4 0-194 0-45.5 44.5-96.1 99.8-96.1-3.1-19.7-8.8-24.5-8.8-24.5 0 0-200.9 0-396.7 0-223.9-4.2-326.1 121.2-321.5 217.6-4.6 101.7 85.9 222.9 258.6 222.9-27.1 6.4-75.1 50.7-75.1 50.7 0 0-172.7 183.2-199.3 209.8-28 25.3-64.2 43.7-115.3 43.7 0 8.7 0 15.7 0 15.7h265.6c0 0 0-7.3 0-15.8-39.1 0-60.1-16.3-38.4-43.6 22.5-25.1 118.8-124.2 118.8-124.2 0 0 23.9-100.1 90.9-162.5-124.8 0-215-80-215-196.7 0-116.7 104.2-193.1 229-193.1 124.7 0 53.8 0 117.1 0 63.2 0 108.4 52.7 108.4 96.1 0 43.5 0 110.1 0 110.1z"/>
	<path id="F Shape" fill-rule="evenodd" class="s0" d="m1429.5 276.1l-146.8 215c0 0-8.2-6.4-12.2-8.8 65.3-96 21.8-112.6-15.7-113.5-24.6 0-260.2-0.1-270.9-0.1-2.4-10.2-3.6-15.7-7-24.4 8.4 0 267.1 0 277.9 0 45.7-3.3 103.7 11.7 162.5-78.7 3.9 4.1 12.2 10.5 12.2 10.5zm-272.6 396.7l-145.1 211.5c0 0-6.2-5.4-10.4-8.8 28.6-37.8 50.5-85.7 13.9-90.8-24.5 0-127.3 0-138 0-9.1-10.3-13.3-14.5-21-22.8 8.4 0 153.5 0.1 159 0 45.6-3.3 75.9-16.8 131.1-97.8 4.2 3.4 10.5 8.7 10.5 8.7z"/>
</svg>